PathFileType	4	(X/Y/Z)	./resultDataOpenSim/trcMotMarkerGrf/sub06/qtm-01-05.trc
DataRate	CameraRate	NumFrames	NumMarkers	Units	OrigDataRate	OrigDataStartFrame	OrigNumFrames
250.000000	250.000000	8	24	m	250.000000	189	503
Frame#	Time	L.Toe.Tip			R.Toe.Tip			L.Ankle.Lat			R.Ankle.Lat			L.Ankle.Med			R.Ankle.Med			L.Heel			R.Heel			L.Knee.Lat			R.Knee.Lat			L.Knee.Med			R.Knee.Med			L.Thigh.Upper			R.Thigh.Upper			L.ASIS			R.ASIS			V.Sacral			L.Acromium			R.Acromium			C7			L.Elbow			R.Elbow			L.Wrist.Lat			R.Wrist.Lat
		X1	Y1	Z1	X2	Y2	Z2	X3	Y3	Z3	X4	Y4	Z4	X5	Y5	Z5	X6	Y6	Z6	X7	Y7	Z7	X8	Y8	Z8	X9	Y9	Z9	X10	Y10	Z10	X11	Y11	Z11	X12	Y12	Z12	X13	Y13	Z13	X14	Y14	Z14	X15	Y15	Z15	X16	Y16	Z16	X17	Y17	Z17	X18	Y18	Z18	X19	Y19	Z19	X20	Y20	Z20	X21	Y21	Z21	X22	Y22	Z22	X23	Y23	Z23	X24	Y24	Z24

189	0.752	0.029603081	0.035610388	-0.045670794	-0.62049798	0.074443003	0.087163933	-0.080659945	0.068268179	-0.07176336	-0.62010903	0.2110861	0.12549168	-0.097979478	0.07887441	0.013781197	-0.57808792	0.20032664	0.045212974	-0.17047835	0.03919051	-0.034897772	-0.63927858	0.2581736	0.061278866	-0.036133535	0.43802777	-0.086520225	-0.27892171	0.3862785	0.16939404	-0.072611601	0.43285896	0.029827424	-0.27243333	0.36439477	0.035416445	-0.18842284	0.80406963	-0.16205971	-0.26332568	0.74831455	0.16831719	-0.13510926	0.84019585	-0.10366052	-0.17388109	0.81583758	0.14452812	-0.34652075	0.8998018	0.0097623674	-0.22977686	1.3026895	-0.18166235	-0.22889353	1.2972362	0.18085609	-0.30719729	1.3394519	-0.0013641438	-0.3213979	1.0022958	-0.21663448	-0.26444429	0.97740187	0.25449769	-0.2459672	0.77608263	-0.26745504	-0.048690092	0.85000471	0.25192383
190	0.756	0.02948069	0.035632336	-0.045868064	-0.60589374	0.076982706	0.088685504	-0.081226314	0.068107216	-0.071885441	-0.60749503	0.2142946	0.12585492	-0.097932349	0.078969335	0.013646836	-0.56582471	0.2034966	0.045631287	-0.17059842	0.039181043	-0.034904324	-0.6283686	0.26076686	0.061861373	-0.033547917	0.43745422	-0.08710208	-0.26643161	0.38726503	0.17049125	-0.070410396	0.43239601	0.02915256	-0.26005702	0.36626876	0.036244193	-0.18227767	0.80517915	-0.16214623	-0.25823932	0.75018148	0.1685941	-0.12899191	0.84118981	-0.10381833	-0.16770465	0.81740412	0.14462168	-0.34082944	0.9013821	0.0097182273	-0.22289181	1.3040725	-0.18167426	-0.22288056	1.2987314	0.18095834	-0.30070902	1.340947	-0.0014719883	-0.31336833	1.0030912	-0.2171239	-0.25973498	0.9788382	0.25379975	-0.23560326	0.77744241	-0.2670286	-0.045565142	0.84864729	0.25224618
191	0.76	0.029363854	0.03565182	-0.046065656	-0.59082635	0.079287383	0.0901301	-0.081838603	0.067963437	-0.072016417	-0.59459455	0.21729918	0.12616822	-0.097881193	0.079073303	0.013516216	-0.55337045	0.20651172	0.046029413	-0.17070444	0.039183205	-0.034899417	-0.6172939	0.26311133	0.06245572	-0.031121712	0.43689903	-0.087636098	-0.25387887	0.38844683	0.17155345	-0.068006869	0.43210498	0.028696073	-0.24781396	0.36839068	0.037043387	-0.17626881	0.80621731	-0.1622597	-0.25358441	0.75216741	0.1692995	-0.12292644	0.84217542	-0.10397245	-0.16153733	0.81903082	0.14472099	-0.33404765	0.90298865	0.0094133514	-0.21605742	1.3055216	-0.18165561	-0.21693726	1.3002813	0.18108595	-0.29429732	1.3424757	-0.0015241324	-0.30533164	1.0039363	-0.21761197	-0.25495284	0.98033701	0.25312928	-0.22515673	0.77890509	-0.26656986	-0.042671405	0.84737804	0.25260594
192	0.764	0.029264228	0.035664297	-0.046246928	-0.57541142	0.081347128	0.091522604	-0.082490114	0.067836218	-0.072154658	-0.58144608	0.21991053	0.12644294	-0.097820831	0.079184086	0.013386153	-0.54055168	0.20916052	0.046408026	-0.17079344	0.039197049	-0.034887752	-0.60571466	0.26505662	0.062914361	-0.028854237	0.43635836	-0.088121778	-0.24128112	0.38980513	0.1725768	-0.065416968	0.43197895	0.028447412	-0.23557628	0.3706268	0.037850476	-0.17043797	0.80719149	-0.16240034	-0.24906158	0.75413521	0.17023948	-0.11691193	0.84315478	-0.10412981	-0.15532734	0.82067703	0.14477776	-0.32651187	0.90464022	0.0088957128	-0.20927798	1.3070364	-0.18160801	-0.21105574	1.3018815	0.18123861	-0.28793529	1.3440237	-0.0015491759	-0.29728735	1.0048307	-0.21808568	-0.25006933	0.98190182	0.25248704	-0.21465199	0.78045873	-0.26609441	-0.039972595	0.84618938	0.25294581
193	0.768	0.029179635	0.035672343	-0.046410852	-0.5597337	0.083160135	0.092890904	-0.083174145	0.067724938	-0.072298534	-0.56810589	0.22202636	0.12669761	-0.097758472	0.079298273	0.013258394	-0.52729683	0.21134389	0.046780553	-0.17086764	0.039221447	-0.034874607	-0.59360787	0.26652654	0.063203843	-0.026744143	0.43583494	-0.088559238	-0.22866439	0.39132907	0.17355826	-0.062825925	0.43195252	0.028310254	-0.22324716	0.37287823	0.038703496	-0.16478108	0.8081195	-0.16255943	-0.24429936	0.7559967	0.17109089	-0.11094181	0.84413239	-0.10429779	-0.14910638	0.82235229	0.14481702	-0.31869586	0.90630856	0.0082059327	-0.20255548	1.3086159	-0.1815328	-0.20522245	1.3035265	0.18141345	-0.28156066	1.3455757	-0.0016116832	-0.28923205	1.005779	-0.21853898	-0.2451444	0.98353657	0.25186928	-0.2041321	0.78209072	-0.26562373	-0.037369482	0.84507147	0.25324648
194	0.772	0.029103515	0.035677827	-0.046560783	-0.54387517	0.084736238	0.094272451	-0.083883995	0.067628973	-0.072446413	-0.55463603	0.22366088	0.12694587	-0.097707528	0.079410305	0.013141976	-0.51371617	0.21311019	0.047159753	-0.17093163	0.039256261	-0.03486399	-0.58107	0.26749788	0.063359092	-0.024782836	0.43533658	-0.088945702	-0.21605692	0.39301283	0.17449524	-0.06042902	0.43195357	0.028180285	-0.21078571	0.37512129	0.039619126	-0.15927768	0.80901537	-0.16272184	-0.23918163	0.75781402	0.1716623	-0.10499562	0.845113	-0.10448193	-0.14289976	0.82406666	0.14485818	-0.3110563	0.90796287	0.0074514434	-0.19588541	1.3102567	-0.18142959	-0.199425	1.3052098	0.18160464	-0.27514056	1.3471317	-0.0017397122	-0.2811629	1.0067805	-0.21897922	-0.24024527	0.98524209	0.2512745	-0.19361591	0.78379857	-0.26516573	-0.034807649	0.84402261	0.25353714
195	0.776	0.029033056	0.035680241	-0.046694884	-0.52792615	0.086095195	0.095714427	-0.084612966	0.0675477	-0.072596667	-0.54108938	0.22490549	0.12718732	-0.097678143	0.079516319	0.013046657	-0.49998859	0.21456267	0.047557008	-0.17098878	0.039301857	-0.034857369	-0.56813578	0.26795991	0.063386623	-0.022949574	0.43487259	-0.08927326	-0.2034851	0.39485428	0.17538366	-0.058278649	0.4319494	0.028027655	-0.19822033	0.37738381	0.040565636	-0.15391549	0.80988368	-0.16287112	-0.23397674	0.75979741	0.17210018	-0.099053393	0.84609782	-0.10468426	-0.13667038	0.8257957	0.14486621	-0.30387236	0.9096121	0.0067696217	-0.1892632	1.3119528	-0.1812972	-0.1936506	1.3069202	0.18180727	-0.26872667	1.3487071	-0.001870465	-0.27308125	1.0078293	-0.21942056	-0.23540738	0.98701623	0.25070992	-0.18307402	0.78559278	-0.26470037	-0.032301438	0.84304963	0.25384743
196	0.78	0.028969328	0.03567934	-0.04680752	-0.5119499	0.087262002	0.097250519	-0.085354369	0.067480494	-0.072747667	-0.52748763	0.22587146	0.12741439	-0.097670638	0.079616216	0.01297621	-0.48618401	0.21575371	0.047964411	-0.17104087	0.039358048	-0.034855334	-0.55484957	0.26795939	0.063276455	-0.02121579	0.43445108	-0.089529672	-0.19097268	0.3968532	0.17621607	-0.056316558	0.43194466	0.027882967	-0.18561449	0.37968533	0.041474204	-0.14866327	0.81072923	-0.16300577	-0.22904369	0.76216856	0.17275743	-0.093136486	0.84708614	-0.10490431	-0.13038079	0.82751422	0.14481017	-0.29712693	0.91128164	0.006228747	-0.18268847	1.3136963	-0.18113521	-0.18788976	1.3086447	0.18201933	-0.262391	1.3503095	-0.0019210659	-0.2649909	1.0089191	-0.21987255	-0.23063159	0.98885445	0.25018647	-0.17248063	0.78747919	-0.26420657	-0.029887298	0.84216344	0.25418467
